<?xml version="1.0" encoding="UTF-8" standalone="no"?>
<!-- Created with Inkscape (http://www.inkscape.org/) -->

<svg
   xmlns:dc="http://purl.org/dc/elements/1.1/"
   xmlns:cc="http://creativecommons.org/ns#"
   xmlns:rdf="http://www.w3.org/1999/02/22-rdf-syntax-ns#"
   xmlns:svg="http://www.w3.org/2000/svg"
   xmlns="http://www.w3.org/2000/svg"
   xmlns:sodipodi="http://sodipodi.sourceforge.net/DTD/sodipodi-0.dtd"
   xmlns:inkscape="http://www.inkscape.org/namespaces/inkscape"
   id="svg3406"
   version="1.1"
   inkscape:version="0.91 r13725"
   width="160"
   height="160"
   viewBox="0 0 160 160"
   sodipodi:docname="icon_128.svg"
   inkscape:export-filename="/Users/okhiroyuki/Documents/github/BlocklyDuinoEditor/media/icon_128-2.png"
   inkscape:export-xdpi="90"
   inkscape:export-ydpi="90">
  <metadata
     id="metadata3412">
    <rdf:RDF>
      <cc:Work
         rdf:about="">
        <dc:format>image/svg+xml</dc:format>
        <dc:type
           rdf:resource="http://purl.org/dc/dcmitype/StillImage" />
        <dc:title />
      </cc:Work>
    </rdf:RDF>
  </metadata>
  <defs
     id="defs3410">
    <inkscape:path-effect
       effect="bend_path"
       id="path-effect4305"
       is_visible="true"
       bendpath="m 13.933576,80.717199 98.048864,0"
       prop_scale="1"
       scale_y_rel="false"
       vertical="false" />
  </defs>
  <sodipodi:namedview
     pagecolor="#ffffff"
     bordercolor="#666666"
     borderopacity="1"
     objecttolerance="10"
     gridtolerance="10"
     guidetolerance="10"
     inkscape:pageopacity="0"
     inkscape:pageshadow="2"
     inkscape:window-width="1245"
     inkscape:window-height="712"
     id="namedview3408"
     showgrid="false"
     inkscape:zoom="3.4312499"
     inkscape:cx="113.21834"
     inkscape:cy="85.741665"
     inkscape:window-x="34"
     inkscape:window-y="10"
     inkscape:window-maximized="0"
     inkscape:current-layer="layer1" />
  <text
     xml:space="preserve"
     style="font-style:normal;font-weight:normal;font-size:40px;line-height:125%;font-family:sans-serif;-inkscape-font-specification:sans-serif;letter-spacing:0px;word-spacing:0px;fill:#000000;fill-opacity:1;stroke:none;stroke-width:1px;stroke-linecap:butt;stroke-linejoin:miter;stroke-opacity:1;font-stretch:normal;font-variant:normal;"
     x="34.68124"
     y="76.648453"
     id="text4222"
     sodipodi:linespacing="125%"><tspan
       sodipodi:role="line"
       id="tspan4224"
       x="34.68124"
       y="76.648453" /></text>
  <g
     inkscape:groupmode="layer"
     id="layer1"
     inkscape:label="Layer 1"
     style="display:inline">
    <path
       style="fill:#eee8d5;fill-opacity:1"
       d="m 59.259778,127.07738 c 0.935718,-2.17381 3.829365,-8.62334 6.430323,-14.33228 4.70405,-10.3251 4.737009,-10.3614 6.242229,-6.875 1.789023,4.14373 7.566197,9.82132 11.450456,11.25307 2.325613,0.85723 0.518234,2.02653 -11.533263,7.46156 l -14.29105,6.44503 1.701305,-3.95239 z M 86.25,112.34909 C 78.236134,109.16292 73.944759,101.48952 75.673635,93.4375 76.962772,87.433514 132.3634,31.765789 139.04029,29.765344 c 12.70252,-3.805768 24.41365,8.595221 19.28183,20.417667 -2.28997,5.275551 -57.6732,60.473899 -62.465995,62.257489 -4.189145,1.55893 -5.486219,1.54659 -9.606125,-0.0914 z"
       id="path4152"
       inkscape:connector-curvature="0"
       inkscape:export-xdpi="90"
       inkscape:export-ydpi="90" />
  </g>
  <g
     inkscape:groupmode="layer"
     id="layer2"
     inkscape:label="infinity"
     style="display:inline;opacity:1">
    <path
       style="color:#000000;font-style:normal;font-variant:normal;font-weight:normal;font-stretch:normal;font-size:medium;line-height:normal;font-family:sans-serif;text-indent:0;text-align:start;text-decoration:none;text-decoration-line:none;text-decoration-style:solid;text-decoration-color:#000000;letter-spacing:normal;word-spacing:normal;text-transform:none;direction:ltr;block-progression:tb;writing-mode:lr-tb;baseline-shift:baseline;text-anchor:start;white-space:normal;clip-rule:nonzero;display:inline;overflow:visible;visibility:visible;opacity:1;isolation:auto;mix-blend-mode:normal;color-interpolation:sRGB;color-interpolation-filters:linearRGB;solid-color:#000000;solid-opacity:1;fill:#008080;fill-opacity:1;fill-rule:nonzero;stroke:none;stroke-width:1;stroke-linecap:butt;stroke-linejoin:miter;stroke-miterlimit:4;stroke-dasharray:none;stroke-dashoffset:0;stroke-opacity:1;color-rendering:auto;image-rendering:auto;shape-rendering:auto;text-rendering:auto;enable-background:accumulate"
       d="m 62.762463,63.782978 c -1.0179,-0.02801 -2.03482,0.07503 -3.01486,0.318147 -1.93312,0.479543 -4.0829,1.478871 -5.76366,2.678214 -1.995589,1.423998 -4.679367,3.987076 -6.812954,6.494808 -0.325434,0.382503 -0.634392,0.744405 -0.869985,1.019223 -0.163046,0.190191 -0.221689,0.257343 -0.292694,0.338972 -0.05768,-0.04217 -0.110819,-0.07838 -0.224439,-0.179322 -0.31842,-0.282885 -0.849195,-0.800913 -1.699478,-1.649729 -4.565306,-4.557419 -7.288527,-6.565307 -11.003231,-8.094797 -3.015553,-1.241622 -5.952038,-1.222248 -8.5483,0.07983 -3.217001,1.613384 -5.612047,4.565926 -6.927489,8.500866 -0.620845,1.857163 -0.788242,2.87189 -0.786688,4.783758 0.0015,1.851649 0.146472,2.922274 0.628194,4.635679 1.488475,5.294271 5.334454,9.231391 10.104323,10.291741 0.509758,0.11358 1.184403,0.13728 2.61227,0.11338 1.71379,-0.0287 2.077031,-0.0668 2.862159,-0.28923 1.053473,-0.29841 2.806072,-1.04384 3.859402,-1.63932 3.095837,-1.75018 6.331509,-4.73664 8.761168,-8.072809 0.271154,-0.372327 0.377578,-0.499761 0.456974,-0.593492 1.173358,1.744496 3.911414,4.701741 5.808771,6.262281 1.960127,1.61215 3.736057,2.6216 5.958007,3.38275 2.02743,0.69453 2.92804,0.84401 5.02209,0.83644 1.66264,-0.006 1.97613,-0.0362 2.84827,-0.27071 3.89061,-1.04609 6.82681,-4.15608 8.3204,-8.748445 0.748,-2.299912 0.83646,-2.921605 0.83527,-5.955698 -0.001,-2.612282 -0.0169,-2.785781 -0.28113,-3.907987 -0.67824,-2.88097 -1.78611,-4.993286 -3.59215,-6.823367 -2.13895,-2.167417 -5.20651,-3.427135 -8.26024,-3.511179 z m -0.0174,0.595801 c 2.90105,0.08486 5.83558,1.285231 7.85532,3.331857 1.73206,1.755116 2.778,3.738677 3.4383,6.543403 0.26282,1.116394 0.26393,1.160351 0.26492,3.771472 0.001,3.024166 -0.0632,3.486729 -0.80635,5.771756 -1.44767,4.451187 -4.23123,7.370357 -7.91085,8.359717 -0.85424,0.22969 -1.03945,0.24504 -2.69672,0.25105 -2.06725,0.007 -2.82449,-0.11781 -4.82773,-0.80404 -2.16235,-0.74075 -3.85537,-1.70171 -5.77406,-3.2798 -1.868271,-1.53661 -4.754095,-4.661327 -5.80299,-6.269214 -0.03695,-0.05663 -0.05766,-0.140092 -0.212868,-0.215182 -0.0776,-0.03755 -0.193067,-0.04377 -0.271871,-0.01848 -0.0788,0.02529 -0.127704,0.06398 -0.17122,0.101804 -0.174061,0.151281 -0.322763,0.375614 -0.661742,0.841061 -2.381041,3.269411 -5.575887,6.210271 -8.573752,7.905061 -0.990357,0.55989 -2.762239,1.31236 -3.728673,1.58611 -0.759778,0.21522 -1.002614,0.2375 -2.710605,0.26609 -1.417214,0.0237 -2.059706,-0.007 -2.4746,-0.0995 -4.532371,-1.00755 -8.225084,-4.76068 -9.662389,-9.872943 -0.473047,-1.68255 -0.604761,-2.65393 -0.606213,-4.476027 -0.0015,-1.879112 0.144491,-2.76759 0.755452,-4.595184 1.275298,-3.814857 3.568548,-6.622965 6.632481,-8.159582 2.439948,-1.22368 5.166921,-1.252276 8.056619,-0.06247 3.641015,1.499152 6.266266,3.430469 10.810029,7.966381 0.852189,0.850717 1.383138,1.369219 1.724931,1.672872 0.170897,0.151826 0.29058,0.250194 0.404914,0.318146 0.05717,0.034 0.112455,0.06378 0.200142,0.07751 0.08769,0.01374 0.236245,-0.01955 0.315833,-0.105281 0.05752,-0.06195 0.202203,-0.231122 0.438463,-0.506721 0.23626,-0.275594 0.546436,-0.638532 0.872299,-1.021539 2.103409,-2.472257 4.77961,-5.021149 6.70537,-6.395314 1.61229,-1.150492 3.71856,-2.127989 5.56351,-2.585661 0.9245,-0.229341 1.88704,-0.32561 2.85406,-0.297322 z m 0.63745,4.580146 c -2.45961,-0.344446 -5.00841,0.488779 -7.47585,2.44915 -0.65564,0.520901 -2.32625,2.167485 -3.87329,3.748338 -0.77352,0.790429 -1.509196,1.558658 -2.053489,2.149511 -0.272147,0.295431 -0.496126,0.545732 -0.65596,0.735787 -0.07992,0.09503 -0.143192,0.175063 -0.192044,0.242944 -0.02443,0.03394 -0.04508,0.06424 -0.06479,0.09949 -0.0197,0.03524 -0.05419,0.0523 -0.05322,0.187419 0.0014,0.195232 0.06921,0.262633 0.143455,0.386401 0.07424,0.123773 0.173972,0.267295 0.297322,0.431524 0.2467,0.328454 0.586838,0.73805 0.981047,1.186977 0.788417,0.897849 1.790189,1.947488 2.667799,2.760349 3.06395,2.837905 5.33537,4.265155 7.66212,4.764095 0.9945,0.21326 2.30553,0.19613 3.26244,-0.0451 2.92793,-0.73815 5.09728,-3.180638 5.96843,-6.646357 0.6753,-2.686574 0.47185,-5.213097 -0.62588,-7.759295 -0.82695,-1.918137 -1.96471,-3.189154 -3.5644,-3.951957 -0.79353,-0.378386 -1.60382,-0.62444 -2.42369,-0.739252 z m -33.285032,0.133043 c -0.797763,-0.07964 -1.59072,-0.04869 -2.301064,0.10181 -2.860372,0.605901 -5.316997,3.394213 -6.239136,6.95294 -0.180567,0.696847 -0.228288,1.163761 -0.226752,2.214294 0.0011,0.72772 0.04949,1.569599 0.128416,1.972508 1.03105,5.263596 5.269916,8.750264 9.850963,8.008024 2.514908,-0.40747 4.949781,-1.94832 7.914321,-4.946878 0.586367,-0.593101 1.53924,-1.662547 2.364693,-2.626156 0.412727,-0.481802 0.792521,-0.936297 1.07707,-1.291091 0.142275,-0.177403 0.260774,-0.328933 0.349382,-0.450035 0.04431,-0.06055 0.08082,-0.113638 0.111062,-0.160806 0.03025,-0.04715 0.05414,-0.07457 0.07983,-0.153869 0.04439,-0.137042 0.003,-0.199817 -0.01619,-0.244106 -0.01914,-0.04431 -0.03969,-0.07511 -0.06132,-0.106436 -0.04324,-0.06264 -0.09505,-0.12427 -0.158494,-0.1932 -0.126892,-0.137853 -0.297272,-0.300033 -0.490533,-0.465068 -0.348033,-0.297214 -1.424795,-1.314112 -2.354282,-2.227024 -3.427971,-3.366841 -5.508412,-4.950762 -7.696824,-5.82381 -0.730426,-0.291397 -1.53338,-0.481452 -2.331144,-0.561097 z m 33.197112,0.444248 c 0.76128,0.109528 1.51413,0.342172 2.2571,0.69645 1.47028,0.701094 2.48655,1.824615 3.27402,3.651166 1.05243,2.441148 1.24431,4.805586 0.59696,7.380985 -0.83096,3.30579 -2.84303,5.536277 -5.53922,6.216007 -0.83236,0.20984 -2.11618,0.22873 -2.99405,0.0405 -2.17759,-0.46695 -4.35378,-1.813464 -7.3833,-4.619481 -0.85601,-0.792864 -1.851107,-1.832611 -2.626154,-2.715237 -0.387524,-0.44131 -0.720378,-0.844876 -0.952125,-1.153421 -0.115874,-0.154273 -0.20605,-0.285166 -0.262615,-0.379465 -0.03148,-0.05248 -0.02542,-0.03003 -0.0324,-0.04857 0.03415,-0.04585 0.07927,-0.103936 0.144612,-0.181632 0.149186,-0.177397 0.369812,-0.424328 0.638606,-0.716116 0.53759,-0.583581 1.270258,-1.349438 2.040766,-2.136782 1.54101,-1.574698 3.26114,-3.256372 3.81775,-3.698599 2.37784,-1.889179 4.73621,-2.664344 7.02004,-2.335766 z M 30.037325,69.68546 c 0.744897,0.0742 1.498755,0.249904 2.171493,0.518289 2.079454,0.829582 4.092579,2.347452 7.501308,5.695393 0.935471,0.918787 1.990543,1.918472 2.384362,2.254786 0.177666,0.151725 0.335644,0.303516 0.43962,0.416485 0.02064,0.02245 0.0269,0.0321 0.04281,0.05088 -0.01374,0.01961 -0.02216,0.03204 -0.03934,0.0555 -0.0797,0.108917 -0.19416,0.257012 -0.333186,0.430363 -0.278053,0.346697 -0.655731,0.797703 -1.065501,1.276058 -0.81954,0.956696 -1.77428,2.026978 -2.335772,2.594916 -2.921939,2.955468 -5.246386,4.399721 -7.588076,4.779131 -4.235323,0.68622 -8.192097,-2.523561 -9.174179,-7.537175 -0.0546,-0.278745 -0.11696,-1.161418 -0.118004,-1.85913 -0.0015,-1.034227 0.03669,-1.40419 0.208242,-2.066212 0.876523,-3.382692 3.225258,-5.978574 5.787947,-6.521421 0.637264,-0.134986 1.373377,-0.162121 2.118275,-0.08792 z"
       id="path4301"
       inkscape:connector-curvature="0" />
    <path
       style="fill:#008080;fill-opacity:1"
       d="m 26.044897,91.708011 c -3.819084,-1.571028 -6.473889,-4.641462 -7.811924,-9.034939 -2.799024,-9.190679 4.115529,-19.460627 12.107725,-17.983189 3.691087,0.682335 7.152929,2.859025 12.298508,7.732892 l 3.297208,3.123098 3.548965,-3.62497 c 4.736314,-4.837749 7.106574,-6.37898 11.078234,-7.203493 3.2287,-0.670275 7.01289,0.490295 9.71251,2.978722 2.68415,2.474163 3.88944,5.647075 3.88409,10.224861 -0.007,6.32918 -2.53512,11.207189 -6.92808,13.369839 -1.70082,0.837312 -2.16866,0.936003 -4.40731,0.929722 -4.67754,-0.01312 -7.87062,-1.556591 -12.297349,-5.944269 -1.699363,-1.684373 -3.37352,-3.455938 -3.720353,-3.936813 l -0.6306,-0.874317 -1.069139,1.311476 c -1.965542,2.411062 -6.074424,6.255326 -7.737785,7.239462 -3.045359,1.801802 -4.795884,2.364189 -7.358932,2.364189 -1.768246,0 -2.726328,-0.162413 -3.965768,-0.672271 z m 8.149577,-4.280002 c 1.533032,-0.740741 2.64437,-1.65249 5.33496,-4.376835 1.869202,-1.892653 3.493328,-3.739807 3.609169,-4.104786 0.180829,-0.569744 -0.176184,-1.026955 -2.524234,-3.232673 -5.581204,-5.242888 -7.916846,-6.647214 -11.090265,-6.668123 -2.979894,-0.01963 -4.762497,0.975279 -6.50211,3.628984 -2.542219,3.878046 -2.417369,8.33453 0.343216,12.251002 2.527836,3.586271 6.626167,4.533315 10.829264,2.502431 z m 30.730849,0.423489 c 1.95524,-0.66622 4.04134,-3.031619 4.87016,-5.522223 0.90842,-2.729811 0.75019,-6.284431 -0.38874,-8.732972 -1.58684,-3.411508 -3.45081,-4.642918 -7.04635,-4.655115 -3.52563,-0.01196 -4.89715,0.76751 -9.69035,5.50726 -2.123859,2.100181 -3.861564,3.975765 -3.861564,4.167964 0,0.192199 1.20919,1.614286 2.687085,3.160193 5.492299,5.74504 9.318409,7.475768 13.429759,6.074893 z"
       id="path3400"
       inkscape:connector-curvature="0" />
  </g>
  <g
     inkscape:groupmode="layer"
     id="layer3"
     inkscape:label="file"
     style="display:inline">
    <path
       style="display:inline;opacity:1;fill:#002b36;fill-opacity:1"
       d="M 18.75659,158.8395 C 14.556528,158.33863 10.787877,156.37467 7.2630704,152.84987 0.70950776,146.2963 1.1048982,149.62469 0.7945852,98.398267 0.6421609,73.236085 0.73314175,51.496803 0.996765,50.088753 c 0.3680718,-1.96593 5.661214,-7.75854 22.80665,-24.95875 12.280033,-12.31926 23.383082,-22.9445999 24.67344,-23.6118699 3.52902,-1.82492997 53.532585,-1.76366997 61.462045,0.0753 9.835,2.28089 15.81113,8.33066 16.57745,16.7817099 l 0.43547,4.80252 -4.63878,4.60186 -4.63878,4.60186 0,-7.19952 c 0,-9.62858 -2.01519,-12.63203 -9.89177,-14.74272 -5.37938,-1.4415099 -53.048249,-1.4647399 -54.241941,-0.0264 -0.521685,0.6286 -0.969443,7.95175 -1.131326,18.503 l -0.26792,17.46266 -2.840723,2.92917 -2.840723,2.92916 -17.460113,0 c -13.976635,0 -17.651577,0.2307 -18.41978,1.15633 -0.7101402,0.85561 -0.8971333,12.483139 -0.7191681,44.718973 0.2402681,43.521264 0.2422421,43.565164 2.0738791,46.132954 1.008359,1.41364 2.863066,3.26834 4.12157,4.12157 2.172321,1.47277 4.60479,1.55133 48.03761,1.55133 l 45.749425,0 2.69146,-1.9197 c 4.79168,-3.41768 5.13952,-4.94661 5.13952,-22.59086 l 0,-15.93714 4.57652,-4.50557 4.57651,-4.50557 -0.24887,22.66864 c -0.23,20.95059 -0.37226,22.85605 -1.87699,25.14157 -2.2569,3.42798 -6.12516,7.1116 -9.52197,9.06745 -2.76216,1.59044 -4.46368,1.65213 -48.200506,1.74774 -24.935496,0.0545 -46.63556,-0.0557 -48.222364,-0.24495 z"
       id="path3398"
       inkscape:connector-curvature="0" />
  </g>
</svg>
